# File created by Blade
# Date/Time:  Thu Sep 25 17:14:50 2014
# Frame Rate: 120.000 fps
#------------------------------------------------------
:FULLY-SPECIFIED
:DEGREES
880
root -17.322144 33.343705 9.489710 368.701830 21.476962 360.642376
Spine -7.232697 8.179958 -2.245522
Head -18.699675 -18.045456 10.279802
LeftShoulder -16.396855 24.411550 23.506697
LeftArm 17.106089 -18.379403 -29.018693
LeftForeArm 8.497615 -0.000000 12.675713
LeftHand -30.441800 -0.000000 -0.928427
LeftHandThumb1 -26.253704 0.000000 33.147579
RightShoulder -19.947176 10.402351 -37.960685
RightArm -20.193064 9.254204 35.209192
RightForeArm -27.807154 -0.000000 25.020403
RightHand -16.697221 -0.000000 -4.921879
RightHandThumb1 -24.326973 -0.000000 -32.862282
LeftUpLeg -1.873075 -10.488150 8.199685
LeftLeg 2.739797 -0.000000 -0.000000
LeftFoot -10.228448 15.700532 -24.309602
LeftToeBase -6.193552 -0.000000 0.000000
RightUpLeg 0.791509 -7.041756 9.917494
RightLeg -0.689603 -0.000000 0.000000
RightFoot 3.363230 2.257772 -12.288332
RightToeBase -12.284929 -0.000000 0.000000
881
root -17.153917 33.267737 9.498423 368.683701 20.186824 361.001527
Spine -7.307455 8.550205 -2.634118
Head -18.250670 -17.553830 9.653574
LeftShoulder -16.797267 24.186465 23.885666
LeftArm 16.528642 -19.015085 -27.971638
LeftForeArm 8.995979 -0.000000 12.623332
LeftHand -30.717123 -0.000000 -0.798530
LeftHandThumb1 -26.253704 0.000000 33.147579
RightShoulder -19.937629 10.809087 -38.464696
RightArm -19.914308 9.147455 34.203546
RightForeArm -28.034777 -0.000000 25.459975
RightHand -16.937291 -0.000000 -5.210749
RightHandThumb1 -24.326973 -0.000000 -32.862282
LeftUpLeg -1.079504 -9.421107 7.641201
LeftLeg 1.826049 -0.000000 -0.000000
LeftFoot -8.722081 15.314027 -24.670638
LeftToeBase -6.621326 -0.000000 0.000000
RightUpLeg 1.355043 -8.112109 9.460190
RightLeg -1.011791 -0.000000 0.000000
RightFoot 2.172960 1.944450 -11.791299
RightToeBase -10.858774 -0.000000 0.000000
882
root -17.003448 33.175771 9.498974 368.709603 18.909532 361.267668
Spine -7.435099 8.918504 -2.951035
Head -17.881235 -16.987415 9.070165
LeftShoulder -17.191528 23.988308 24.275702
LeftArm 16.023816 -19.640916 -26.952598
LeftForeArm 9.084959 -0.000000 12.343201
LeftHand -29.309882 -0.000000 -1.005560
LeftHandThumb1 -26.253704 0.000000 33.147579
RightShoulder -19.916405 11.214585 -38.983940
RightArm -19.528041 9.223952 33.268130
RightForeArm -28.453792 -0.000000 25.699462
RightHand -17.573440 0.000000 -5.926533
RightHandThumb1 -24.326973 -0.000000 -32.862282
LeftUpLeg -0.440042 -8.309262 7.270724
LeftLeg 1.061745 -0.000000 -0.000000
LeftFoot -7.846436 14.567407 -26.808921
LeftToeBase -3.425362 -0.000000 0.000000
RightUpLeg 1.885396 -8.781355 9.108248
RightLeg -1.536611 -0.000000 0.000000
RightFoot 1.033120 1.454098 -11.395282
RightToeBase -9.622485 -0.000000 0.000000
883
root -16.861827 33.071197 9.489984 368.756828 17.726715 361.453348
Spine -7.621089 9.227612 -3.068797
Head -17.452362 -16.450988 8.177048
LeftShoulder -17.474736 23.782248 24.554577
LeftArm 15.457676 -20.126337 -25.887229
LeftForeArm 9.433411 -0.000000 12.375212
LeftHand -29.686014 0.000000 -0.421521
LeftHandThumb1 -26.253704 0.000000 33.147579
RightShoulder -19.918437 11.443844 -39.588554
RightArm -19.087029 9.698835 32.372521
RightForeArm -28.875610 -0.000000 25.979718
RightHand -17.254962 -0.000000 -6.537059
RightHandThumb1 -24.326973 -0.000000 -32.862282
LeftUpLeg 0.092224 -7.366800 7.013207
LeftLeg 0.512294 -0.000000 -0.000000
LeftFoot -8.274034 13.412290 -29.575936
LeftToeBase 1.050609 -0.000000 -0.000000
RightUpLeg 2.448715 -9.000871 8.840286
RightLeg -2.303427 -0.000000 0.000000
RightFoot 0.023087 0.650949 -11.027443
RightToeBase -8.392512 -0.000000 0.000000
884
root -16.715327 32.949020 9.479249 368.803203 16.568390 361.608511
Spine -7.794819 9.497836 -3.076445
Head -17.062402 -15.811372 7.177116
LeftShoulder -17.861818 23.820037 24.769604
LeftArm 15.114814 -20.956921 -25.180383
LeftForeArm 9.885695 0.000000 12.832968
LeftHand -30.402463 -0.000000 0.306462
LeftHandThumb1 -26.253704 0.000000 33.147579
RightShoulder -19.918812 11.828520 -40.291731
RightArm -18.542178 9.841965 31.522740
RightForeArm -29.352725 -0.000000 26.051388
RightHand -17.249745 -0.000000 -7.005639
RightHandThumb1 -24.326973 -0.000000 -32.862282
LeftUpLeg 0.632264 -6.610846 6.726591
LeftLeg 0.094254 -0.000000 -0.000000
LeftFoot -8.735108 12.133986 -30.115668
LeftToeBase 1.663214 -0.000000 -0.000000
RightUpLeg 2.896695 -9.542914 8.554698
RightLeg -2.896829 -0.000000 0.000000
RightFoot -1.331698 0.246992 -10.391550
RightToeBase -7.232070 -0.000000 0.000000
885
root -16.568799 32.816061 9.454997 368.872794 15.450408 361.780078
Spine -7.943887 9.691762 -3.080236
Head -16.721269 -15.057102 6.184542
LeftShoulder -18.287999 23.693161 24.976367
LeftArm 14.853987 -21.783249 -24.522366
LeftForeArm 10.410578 0.000000 12.976891
LeftHand -30.389774 -0.000000 0.701490
LeftHandThumb1 -26.253704 0.000000 33.147579
RightShoulder -19.906411 12.229770 -40.860500
RightArm -17.847390 9.857685 30.649052
RightForeArm -29.411383 -0.000000 25.994208
RightHand -17.535540 -0.000000 -7.609350
RightHandThumb1 -24.326973 -0.000000 -32.862282
LeftUpLeg 1.095671 -5.911566 6.409866
LeftLeg -0.165718 -0.000000 0.000000
LeftFoot -9.078736 10.620856 -29.525233
LeftToeBase 1.208671 -0.000000 -0.000000
RightUpLeg 3.295375 -9.871840 8.209017
RightLeg -3.505518 -0.000000 0.000000
RightFoot -2.794313 -0.119043 -9.767492
RightToeBase -5.690207 -0.000000 0.000000
886
root -16.420374 32.673093 9.425441 368.970794 14.348437 361.887452
Spine -8.146315 9.853281 -2.969066
Head -16.430693 -14.295782 5.202806
LeftShoulder -18.620691 23.662258 25.223317
LeftArm 14.486091 -22.637837 -24.035567
LeftForeArm 10.939183 -0.000000 13.299165
LeftHand -30.780602 -0.000000 0.889653
LeftHandThumb1 -26.253704 0.000000 33.147579
RightShoulder -19.841857 12.617432 -41.393134
RightArm -16.953769 9.767976 29.682897
RightForeArm -29.301159 -0.000000 25.475499
RightHand -18.999041 -0.000000 -5.936339
RightHandThumb1 -24.326973 -0.000000 -32.862282
LeftUpLeg 1.461824 -5.187775 6.122907
LeftLeg -0.278301 -0.000000 0.000000
LeftFoot -9.697520 8.872717 -29.609060
LeftToeBase 1.535894 -0.000000 -0.000000
RightUpLeg 3.637156 -9.838519 7.878857
RightLeg -4.035420 -0.000000 0.000000
RightFoot -4.331400 -0.742872 -10.112525
RightToeBase -4.371075 -0.000000 0.000000
887
root -16.279740 32.528542 9.396575 368.936926 13.225632 361.842247
Spine -8.172059 10.218849 -2.614607
Head -16.279799 -13.594774 4.120060
LeftShoulder -18.801820 23.280964 25.379505
LeftArm 13.994731 -22.929965 -23.321295
LeftForeArm 10.700758 -0.000000 13.553499
LeftHand -31.161221 -0.000000 1.970481
LeftHandThumb1 -26.253704 0.000000 33.147579
RightShoulder -19.804302 12.932025 -42.170695
RightArm -16.399086 10.523932 28.929607
RightForeArm -29.956435 0.000000 25.260297
RightHand -19.443164 0.000000 -6.015475
RightHandThumb1 -24.326973 -0.000000 -32.862282
LeftUpLeg 1.941582 -4.502499 5.915496
LeftLeg -0.464109 -0.000000 0.000000
LeftFoot -10.718679 7.549346 -29.892085
LeftToeBase 1.566489 -0.000000 -0.000000
RightUpLeg 3.919803 -9.992914 7.682154
RightLeg -4.318295 -0.000000 0.000000
RightFoot -5.993337 -1.131737 -9.986831
RightToeBase -3.240630 -0.000000 0.000000
888
root -16.129740 32.389356 9.350267 369.084594 12.107168 361.878307
Spine -8.361885 10.469087 -2.355319
Head -16.152918 -12.747114 3.111751
LeftShoulder -19.085710 23.200036 25.526015
LeftArm 13.718756 -24.128842 -23.152656
LeftForeArm 11.510308 -0.000000 14.051052
LeftHand -31.519505 -0.000000 2.213707
LeftHandThumb1 -26.253704 0.000000 33.147579
RightShoulder -19.775503 13.437775 -42.836107
RightArm -15.728143 10.417101 28.203947
RightForeArm -29.804980 -0.000000 25.034087
RightHand -18.293962 -0.000000 -5.741264
RightHandThumb1 -24.326973 -0.000000 -32.862282
LeftUpLeg 2.334457 -4.360807 5.532654
LeftLeg -0.967503 -0.000000 0.000000
LeftFoot -12.062118 7.308414 -29.887836
LeftToeBase 1.677837 -0.000000 -0.000000
RightUpLeg 4.018323 -9.741077 7.349999
RightLeg -4.585064 -0.000000 0.000000
RightFoot -7.606152 -1.478676 -10.243944
RightToeBase -2.671058 -0.000000 0.000000
889
root -15.983513 32.268671 9.309402 369.250648 10.934865 361.880256
Spine -8.600810 10.775623 -2.091186
Head -15.987529 -11.877838 2.170405
LeftShoulder -19.418104 23.181099 25.628123
LeftArm 13.659606 -25.232139 -23.130022
LeftForeArm 12.043686 -0.000000 14.494424
LeftHand -32.187793 -0.000000 2.600156
LeftHandThumb1 -26.253704 0.000000 33.147579
RightShoulder -19.769198 14.136267 -43.430820
RightArm -15.128745 10.246069 27.413632
RightForeArm -29.913810 -0.000000 24.656502
RightHand -18.230059 0.000000 -5.676879
RightHandThumb1 -24.326973 -0.000000 -32.862282
LeftUpLeg 2.707739 -4.133288 5.097898
LeftLeg -1.521227 -0.000000 0.000000
LeftFoot -13.316509 7.476390 -29.812959
LeftToeBase 2.091075 -0.000000 -0.000000
RightUpLeg 3.852683 -9.829224 7.007168
RightLeg -4.412969 -0.000000 0.000000
RightFoot -9.230596 -1.412767 -10.738920
RightToeBase -1.925844 -0.000000 0.000000
890
root -15.847527 32.174827 9.264054 369.432930 9.797803 361.892575
Spine -8.792866 11.057997 -1.878048
Head -15.948803 -10.988952 1.331804
LeftShoulder -19.790351 23.209966 25.541209
LeftArm 13.698740 -26.494956 -23.129643
LeftForeArm 12.567679 0.000000 14.964467
LeftHand -32.564906 -0.000000 3.294233
LeftHandThumb1 -26.253704 0.000000 33.147579
RightShoulder -19.752887 14.471693 -43.723175
RightArm -14.486925 10.472698 26.680140
RightForeArm -29.884159 0.000000 24.562220
RightHand -19.243761 -0.000000 -5.616814
RightHandThumb1 -24.326973 -0.000000 -32.862282
LeftUpLeg 3.006894 -3.872360 4.593665
LeftLeg -2.083154 -0.000000 0.000000
LeftFoot -14.425474 8.085918 -29.699548
LeftToeBase 2.695020 -0.000000 -0.000000
RightUpLeg 3.576060 -9.841592 6.666064
RightLeg -4.158947 -0.000000 0.000000
RightFoot -10.564309 -1.167392 -11.474592
RightToeBase -1.459436 -0.000000 0.000000
891
root -15.721409 32.116667 9.222362 369.712378 8.681428 361.883338
Spine -9.125896 11.306011 -1.720700
Head -15.894934 -10.098473 0.679522
LeftShoulder -20.250805 23.270993 25.373983
LeftArm 13.945198 -27.893317 -23.314939
LeftForeArm 13.314776 -0.000000 15.468868
LeftHand -33.182499 -0.000000 3.677973
LeftHandThumb1 -26.253704 0.000000 33.147579
RightShoulder -19.778981 14.603404 -43.835919
RightArm -13.662979 10.804880 26.114278
RightForeArm -29.905027 -0.000000 24.332525
RightHand -18.848393 0.000000 -5.177158
RightHandThumb1 -24.326973 -0.000000 -32.862282
LeftUpLeg 3.338557 -4.028440 4.075224
LeftLeg -3.005600 -0.000000 0.000000
LeftFoot -15.274944 9.600985 -29.453571
LeftToeBase 2.375683 -0.000000 -0.000000
RightUpLeg 3.362912 -9.226111 6.349273
RightLeg -4.310814 -0.000000 0.000000
RightFoot -11.185900 -1.192310 -11.971654
RightToeBase -1.146720 -0.000000 0.000000
